<?xml version="1.0" standalone="no"?><!DOCTYPE svg PUBLIC "-//W3C//DTD SVG 1.1//EN" "http://www.w3.org/Graphics/SVG/1.1/DTD/svg11.dtd"><svg t="1715241097298" class="icon" viewBox="0 0 1024 1024" version="1.1" xmlns="http://www.w3.org/2000/svg" p-id="854" xmlns:xlink="http://www.w3.org/1999/xlink" width="200" height="200"><path d="M836.855172 0v217.158621h132.413794zM210.096552 127.117241c-1.765517 8.827586-3.531034 15.889655-7.062069 22.951725l-21.186207 56.496551h58.262069l-19.42069-52.965517c-5.296552-8.827586-7.062069-17.655172-10.593103-26.482759z" fill="#97C932" p-id="855"></path><path d="M969.268966 296.606897V247.172414h-167.724138V0H54.731034v1024H971.034483l-1.765517-727.393103zM554.372414 79.448276h38.841379v98.868965l98.868966-98.868965h52.965517l-95.337931 93.572414 97.103448 132.413793h-51.2l-74.151724-105.931035-28.248276 28.248276v77.682759h-38.841379V79.448276z m-211.862069 0h86.510345c14.124138 0 26.482759 0 33.544827 1.765517 10.593103 1.765517 21.186207 5.296552 28.248276 10.593104 7.062069 5.296552 14.124138 12.358621 19.42069 22.951724 5.296552 8.827586 7.062069 19.42069 7.062069 31.77931 0 19.42069-7.062069 37.075862-19.42069 49.434483-12.358621 14.124138-35.310345 21.186207-67.089655 21.186207h-49.434483v86.510345h-38.841379V79.448276z m-151.834483 0H229.517241l91.806897 225.986207h-44.137931l-24.717241-65.324138H169.489655l-22.951724 65.324138H104.165517L190.675862 79.448276z m760.937931 925.131034H72.386207V388.413793h879.227586v616.165517z" fill="#97C932" p-id="856"></path><path d="M471.393103 128.882759c-3.531034-5.296552-8.827586-8.827586-15.889655-10.593104-3.531034 0-8.827586-1.765517-24.717241-1.765517h-49.434483v67.089655h49.434483c17.655172 0 28.248276-3.531034 35.310345-8.827586 7.062069-5.296552 10.593103-14.124138 10.593103-24.717241 1.765517-10.593103-1.765517-15.889655-5.296552-21.186207z" fill="#97C932" p-id="857"></path><path d="M676.193103 616.165517c5.296552 0 10.593103 1.765517 15.889656 5.296552 3.531034 3.531034 7.062069 8.827586 7.062069 14.124138v116.524138c0 5.296552-1.765517 10.593103-7.062069 14.124138-3.531034 3.531034-8.827586 5.296552-15.889656 5.296551h-7.062069c-5.296552 0-10.593103-1.765517-15.889655-5.296551-3.531034-3.531034-7.062069-8.827586-7.062069-14.124138V635.586207c0-5.296552 1.765517-10.593103 7.062069-14.124138 3.531034-3.531034 8.827586-5.296552 15.889655-5.296552h7.062069z m-321.324137 0c5.296552 0 10.593103 1.765517 15.889655 5.296552s5.296552 8.827586 5.296551 14.124138v116.524138c0 5.296552-1.765517 10.593103-5.296551 14.124138-3.531034 3.531034-8.827586 5.296552-15.889655 5.296551h-7.062069c-5.296552 0-10.593103-1.765517-15.889656-5.296551-3.531034-3.531034-7.062069-8.827586-7.062069-14.124138V635.586207c0-5.296552 1.765517-10.593103 7.062069-14.124138 3.531034-3.531034 8.827586-5.296552 15.889656-5.296552h7.062069z m218.924137-91.806896c5.296552 1.765517 8.827586 5.296552 14.124138 8.827586 5.296552 3.531034 10.593103 8.827586 14.124138 12.358621 5.296552 5.296552 8.827586 10.593103 12.358621 15.889655 3.531034 5.296552 5.296552 12.358621 7.062069 19.420689H399.006897c3.531034-14.124138 10.593103-24.717241 19.420689-35.310344 8.827586-8.827586 17.655172-15.889655 28.248276-21.186207L425.489655 494.344828v-3.531035c0-1.765517 1.765517-3.531034 3.531035-5.296552 1.765517-1.765517 3.531034-3.531034 5.296551-1.765517 1.765517 0 3.531034 0 3.531035 1.765517l21.186207 31.779311c7.062069-3.531034 15.889655-5.296552 22.951724-7.062069 8.827586-1.765517 15.889655-3.531034 24.717241-3.531035 17.655172 0 35.310345 3.531034 49.434483 10.593104l21.186207-33.544828h3.531034c1.765517 0 3.531034 0 7.062069 1.765517 1.765517 1.765517 3.531034 1.765517 5.296552 3.531035v1.765517l-19.42069 33.544828z m-111.227586 33.544827c3.531034 0 7.062069-1.765517 8.827586-3.531034 1.765517-1.765517 3.531034-5.296552 3.531035-8.827586s-1.765517-7.062069-3.531035-8.827587c-1.765517-1.765517-5.296552-3.531034-8.827586-3.531034s-7.062069 1.765517-8.827586 3.531034c-1.765517 1.765517-3.531034 5.296552-3.531034 8.827587s1.765517 7.062069 3.531034 8.827586c3.531034 3.531034 5.296552 3.531034 8.827586 3.531034z m97.103449 0c3.531034 0 7.062069-1.765517 8.827586-3.531034 1.765517-1.765517 3.531034-5.296552 3.531034-8.827586s-1.765517-7.062069-3.531034-8.827587c-1.765517-1.765517-5.296552-3.531034-8.827586-3.531034s-7.062069 1.765517-8.827587 3.531034c-1.765517 1.765517-3.531034 5.296552-3.531034 8.827587s1.765517 7.062069 3.531034 8.827586c3.531034 1.765517 7.062069 3.531034 8.827587 3.531034z m63.55862 49.434483v178.317241c0 5.296552-1.765517 10.593103-5.296552 14.124138s-8.827586 5.296552-14.124137 5.296552h-5.296552v54.731035c0 5.296552-1.765517 10.593103-5.296552 14.124137s-8.827586 5.296552-14.124138 5.296552h-12.358621c-5.296552 0-10.593103-1.765517-14.124137-5.296552-3.531034-3.531034-5.296552-8.827586-5.296552-14.124137v-54.731035h-72.386207v54.731035c0 5.296552-1.765517 10.593103-5.296552 14.124137-3.531034 3.531034-8.827586 5.296552-14.124138 5.296552h-12.35862c-5.296552 0-10.593103-1.765517-14.124138-5.296552s-5.296552-7.062069-5.296552-12.35862v-54.731035h-3.531035c-5.296552 0-10.593103-1.765517-14.124137-5.296551-3.531034-3.531034-5.296552-8.827586-5.296552-14.124138V607.337931h222.455172z" fill="#97C932" p-id="858"></path></svg>