<?xml version="1.0" standalone="no"?><!DOCTYPE svg PUBLIC "-//W3C//DTD SVG 1.1//EN" "http://www.w3.org/Graphics/SVG/1.1/DTD/svg11.dtd"><svg t="1715245452919" class="icon" viewBox="0 0 1024 1024" version="1.1" xmlns="http://www.w3.org/2000/svg" p-id="947" xmlns:xlink="http://www.w3.org/1999/xlink" width="200" height="200"><path d="M507.42496037 160.07583979c268.40082673 0 485.99050828 217.58968156 485.9905068 485.99050681a483.97951211 483.97951211 0 0 1-51.44795949 217.85781361H72.88241305A483.97951211 483.97951211 0 0 1 21.43445209 646.0663466c0-268.40082673 217.58968156-485.99050828 485.99050828-485.99050681z m-119.82179742 372.201695a33.51658738 33.51658738 0 0 0-45.96799952 48.71635882l87.10960909 89.65686937a67.03317331 67.03317331 0 1 0 53.79412218-40.83996028l-92.84094541-95.52227317zM507.42496037 294.1421864c-194.36268695 0-351.92416021 157.56147472-351.92416169 351.9241602a33.51658738 33.51658738 0 1 0 67.03317478 0c0-157.34361708 127.54737131-284.8909869 284.89098691-284.89098691s284.8909869 127.54737131 284.89098691 284.89098691a33.51658738 33.51658738 0 1 0 67.03317329 0c0-194.36268695-157.56147472-351.92416021-351.9241602-351.9241602z" fill="#40A9FF" p-id="948"></path></svg>