<?xml version="1.0" standalone="no"?><!DOCTYPE svg PUBLIC "-//W3C//DTD SVG 1.1//EN" "http://www.w3.org/Graphics/SVG/1.1/DTD/svg11.dtd"><svg t="1719232670502" class="icon" viewBox="0 0 1375 1024" version="1.1" xmlns="http://www.w3.org/2000/svg" p-id="1010" xmlns:xlink="http://www.w3.org/1999/xlink" width="268.5546875" height="200"><path d="M1368.989252 60.269967c1.980299-3.788398 4.046698-7.748996 6.026997-11.881793a14.981392 14.981392 0 0 0 0.860999-1.6359v-0.688799L1300.10929 0c-0.4305 0.861-0.861 1.549799-1.2054 2.324699-1.980299 4.132798-4.046698 8.093396-6.113096 11.881793-0.7749 1.463699-1.549799 2.755198-2.324699 4.132798-1.635899 3.013498-3.357898 5.940897-4.993797 8.609995l-2.669099 4.304998-3.185698 4.821597-3.185698 4.563298-3.271799 4.477197-3.357898 4.218898-2.755198 3.357898-3.616198 4.132798-2.841299 3.013498-3.616198 3.530098c-0.947099 1.033199-1.980299 1.980299-3.013498 2.927399l-3.702298 3.185698c-1.033199 0.861-2.066399 1.808099-3.099598 2.582999l-3.013499 2.238598c-1.721999 1.291499-3.443998 2.582999-5.165997 3.702298l-2.927398 1.894199c-1.808099 1.119299-3.616198 2.238599-5.424297 3.185699l-2.669099 1.463699q-4.391098 2.324699-8.609995 4.132798h-1.205399a71.549061 71.549061 0 0 1-7.835096 2.841298l-2.927399 0.947099-6.715796 1.808099-2.755198 0.6888c-3.185698 0.6888-6.285297 1.291499-9.470995 1.808099-27.896385 4.391098-58.547968 1.894199-92.72965 0a514.102819 514.102819 0 0 0-113.135338 3.185698 380.992292 380.992292 0 0 0-39.605978 8.609996c-4.046698 1.119299-8.007296 2.410799-11.967894 3.788398l-3.874497 1.377599c-2.582999 1.033199-5.252097 1.980299-7.835096 3.099598l-4.391098 1.894199c-2.324699 1.033199-4.735497 2.066399-6.974096 3.185698l-4.563297 2.238599c-1.119299 0.6027-2.238599 1.033199-3.271799 1.635899l-3.099598 1.721999-5.252097 2.927399-6.026997 3.616198-4.993797 3.099598-5.854797 3.874498-4.907697 3.357898-5.768697 4.218898-4.735498 3.530098-1.549799 1.119299-3.099598 2.496899-6.715796 5.510397-4.563298 3.874498-6.457496 5.596497-4.391098 3.960598-6.457496 6.026996-4.132798 3.874498-6.629696 6.543597-2.669099 2.755198-0.7749 0.7749c-3.960598 3.960598-7.835096 8.007296-11.623493 12.053993l-2.669099 2.841299c-3.099598 3.271798-6.113097 6.543596-9.126595 9.901494-1.033199 1.033199-1.980299 2.152499-3.013498 3.271798l-10.762494 12.053994-1.1193 1.291499-10.331994 11.709594-10.159794 11.365193c-0.947099 1.205399-1.980299 2.324699-2.927399 3.443999L740.459595 273.97005a35.473181 35.473181 0 0 0-2.410798 2.669099l-7.921196 8.609995-2.669098 2.927399-9.729295 10.159794-7.060196 6.974096-1.635899 1.549799-5.424297 4.993798-2.496899 2.238598-4.477198 3.874498-2.755198 2.152499-3.616198 2.841299c-2.066399 1.549799-4.046698 3.013498-6.113097 4.391097l-2.582998 1.808099c-2.841298 1.808099-5.596497 3.530098-8.609996 4.993797l-6.457496 3.099599-1.808099 0.688799c-1.635899 0.6888-3.357898 1.205399-4.993797 1.721999l-1.894199 0.6027a59.495067 59.495067 0 0 1-6.543597 1.463699c-1.808099 0-3.702298 0-5.510397 0.4305h-7.662896l-3.357898-0.4305-2.324698-0.602699-3.099599-0.7749a74.218159 74.218159 0 0 1-8.007295-2.841298L619.919661 335.789817a82.569855 82.569855 0 0 1-7.835095-3.874498l-4.993798-2.841299 76.198459 46.321775 4.563297 2.755198a83.861354 83.861354 0 0 0 7.921196 3.874498l1.635899 0.6888a74.993059 74.993059 0 0 0 8.007296 2.927398l3.013498 0.6888 2.324699 0.6027 3.271798 0.430499H721.775906c1.894199 0 3.702298 0 5.510397-0.430499a55.36227 55.36227 0 0 0 6.543596-1.4637l1.980299-0.602699c1.635899-0.5166 3.271798-1.033199 4.907697-1.721999l1.808099-0.6888c2.066399-0.947099 4.218898-1.894199 6.285297-3.013498a88.769052 88.769052 0 0 0 8.609995-5.079898l2.496899-1.721999q3.099598-2.066399 6.199196-4.391097l1.3776-1.0332 2.238599-1.808099 2.669098-2.152498 4.563298-3.960598 2.410798-2.152499 5.510397-5.079897 1.549799-1.4637c2.238599-2.152499 4.563298-4.391098 6.801897-6.715796 3.271798-3.271798 6.457496-6.715796 9.729294-10.159794 0.947099-0.947099 1.894199-1.980299 2.755199-3.013499l7.835096-8.609995 2.496898-2.755198 10.504194-10.331995 3.271799-3.702298c3.013498-3.443998 6.026997-6.974096 9.126595-10.418094l10.848594-12.312293 0.774899-0.9471 10.762494-12.053993 3.013499-3.357898 9.126595-9.815395c0.861-0.947099 1.808099-1.894199 2.669098-2.927398l11.623494-12.053994 3.530098-3.443998 6.629696-6.543596 4.132798-3.874498c2.066399-2.066399 4.218898-4.046698 6.371397-6.026997l4.391097-3.960598 6.457497-5.682597 4.563297-3.788398 6.801897-5.510397 4.649397-3.616198c1.549799-1.205399 3.099598-2.410799 4.735497-3.530098l5.768697-4.218897 4.821598-3.357899 5.940896-3.874498c1.635899-1.033199 3.271798-2.152499 4.993798-3.099598s3.960598-2.496899 6.026996-3.616198l5.165998-2.927398 6.371396-3.357898 4.563298-2.238599 6.974096-3.185698 4.477197-1.980299 7.835096-3.013499 3.788398-1.377599c3.960598-1.377599 7.921196-2.669099 11.967893-3.788398a385.899989 385.899989 0 0 1 39.605979-8.609995 514.877719 514.877719 0 0 1 113.221438-3.185698c34.439981 1.894199 64.747165 4.391098 92.643549 0 3.185698-0.5166 6.371397-1.119299 9.470995-1.808099l2.755199-0.6888 6.801896-1.808099 2.841298-0.9471c2.669099-0.861 5.252097-1.808099 7.835096-2.841298l1.205399-0.4305a90.232751 90.232751 0 0 0 8.609996-4.132798h0.774899l1.894199-1.119299 5.424297-3.185698 3.013499-1.894199c1.721999-1.119299 3.443998-2.410799 5.165997-3.702298l1.808099-1.291499 1.205399-0.9471 3.099599-2.582998 3.616198-3.185699 3.099598-2.927398 2.066399-1.894199 1.549799-1.721999 2.755198-2.927399 3.616198-4.132797 2.755199-3.357898 1.463699-1.6359 1.894199-2.669098c1.119299-1.377599 2.238599-2.841298 3.271798-4.391098l3.185699-4.563297c1.119299-1.549799 2.152499-3.185698 3.185698-4.821598l1.291499-1.980299c0.5166-0.7749 0.947099-1.635899 1.377599-2.324698 1.721999-2.841298 3.357898-5.682597 5.079898-8.609996zM1199.716745 336.564716l-76.112359-46.407875v25.657786c0 4.132798 0 8.609995-0.5166 12.312294l-0.516599 7.232396c0 3.530098-0.5166 7.146296-0.861 10.676394s-0.6027 4.907697-0.860999 7.318496-0.861 6.715796-1.2915 9.901495-0.7749 4.821597-1.119299 7.232396-1.119299 6.285297-1.635899 9.298795-0.947099 4.735497-1.463699 6.974096-1.291499 6.026997-1.980299 8.609995-1.119299 4.563298-1.721999 6.801896-1.549799 5.682597-2.324699 8.609996-1.291499 4.304998-1.894199 6.371396-1.377599 4.218898-2.152499 6.285297c-1.291499 3.960598-2.755198 7.835096-4.218897 11.623493-0.6888 1.808099-1.377599 3.702298-2.152499 5.510397-1.635899 4.132798-3.443998 8.609995-5.338197 12.226194-0.5166 1.119299-1.033199 2.410799-1.6359 3.616198l-4.218897 8.179495c-0.861 1.635899-1.635899 3.271798-2.582999 4.907698-1.721999 3.099598-3.443998 6.026997-5.252097 9.040495l-2.066399 3.443998c-1.808099 2.841298-3.616198 5.596497-5.510397 8.609995l-2.238599 3.357898c-2.582999 3.702298-5.338197 7.404596-8.609995 10.934694-2.841298 3.616198-5.682597 7.060196-8.609995 10.331995l-3.099598 3.443998c-2.066399 2.238599-4.132798 4.477198-6.285297 6.629696l-2.841298 2.841298-8.609996 8.093396-3.616198 3.185698q-4.563298 3.874498-9.040495 7.490696l-3.013498 2.324699a56.395469 56.395469 0 0 1-4.563298 3.357898l-5.424297 3.960598-4.735497 3.185698c-1.894199 1.291499-3.702298 2.496899-5.596497 3.616198l-4.821597 3.013499-5.596497 3.357898-4.993798 2.755198-5.510397 2.927399-8.609995 4.132797-3.702298 1.808099-12.140093 5.338198h-1.2054l-11.106894 4.304997-4.218897 1.463699-8.609996 2.755199-4.821597 1.549799-7.748996 2.238599-4.907697 1.377599-7.835096 1.980299-4.649397 1.119299-8.609996 1.808099-3.960597 0.7749c-4.132798 0.7749-8.609995 1.549799-12.312294 2.152499a386.502689 386.502689 0 0 1-71.72126 4.477197l76.198458 46.321775a378.839793 378.839793 0 0 0 71.721261-4.391098l12.226193-2.152498 4.046698-0.861 8.609995-1.721999 4.649398-1.119299 7.835095-1.980299 5.940897-1.0332 7.662896-2.238599 4.821597-1.549799 8.609996-2.755198 4.218897-1.463699c3.702298-1.377599 7.404596-2.755198 11.020794-4.304998l1.2915-0.5166c4.046698-1.635899 8.093396-3.443998 12.140093-5.338197l3.702298-1.721999 8.609995-4.132798 1.463699-0.774899 3.960598-2.152499 4.993797-2.841298 5.596497-3.271799 4.907698-3.013498 5.510397-3.616198 4.735497-3.185698 5.510397-3.960598 4.563298-3.357898 0.860999-0.6027 2.066399-1.721999q4.649397-3.616198 9.040495-7.490696l3.702298-3.271798c2.841298-2.582999 5.768697-5.252097 8.609995-8.093396l2.152499-1.894199a6.974096 6.974096 0 0 1 0.7749-0.860999l6.199196-6.629697c1.033199-1.205399 2.152499-2.238599 3.185699-3.443998 2.927398-3.357898 5.768697-6.801896 8.609995-10.331994 2.755198-3.530098 5.510397-7.232396 8.609995-10.934694 0.7749-1.205399 1.549799-2.496899 2.410799-3.702298 1.808099-2.582999 3.616198-5.252097 5.252097-7.921196l1.894199-3.271798c1.808099-3.013498 3.616198-5.940897 5.338197-8.609995l2.582999-4.993798c1.377599-2.669099 2.841298-5.338197 4.132797-8.093395a4.046698 4.046698 0 0 0 0.4305-0.861c0.4305-0.861 0.861-1.894199 1.2915-2.841298 1.808099-3.960598 3.616198-8.007296 5.338197-12.140094l2.152498-5.510396c1.463699-3.788398 2.841298-7.662896 4.218898-11.623494 0-1.205399 0.861-2.324699 1.205399-3.530098a25.829986 25.829986 0 0 0 0.861-2.755199c0.6888-2.066399 1.291499-4.218898 1.894199-6.371396s1.635899-5.596497 2.410799-8.609996 1.119299-4.391098 1.635899-6.715796l2.066399-8.609995c0-2.238599 0.947099-4.563298 1.377599-6.974096s1.119299-6.199197 1.635899-9.384895 0.7749-4.735497 1.119299-7.146296 0.947099-6.543596 1.2915-9.901495 0.6027-4.821597 0.860999-7.318496 0.6027-7.146296 0.861-10.762494 0.4305-4.735497 0.516599-7.146296c0-4.046698 0.4305-8.609995 0.5166-12.484493v-6.113097c-0.6888-7.232396-0.6888-13.689893-0.860999-20.319589zM526.845612 920.580697c23.505287 14.378692 39.519878 32.201382 58.978468 44.083176l76.198458 46.407875c-19.458589-11.881794-35.473181-29.704484-59.064567-44.083176zM479.146238 727.716802c3.788398 0 7.490696-0.6027 11.192994-1.033199l3.702298-0.4305c4.477198-0.5166 8.609995-1.119299 13.345493-1.808099A417.154272 417.154272 0 0 0 579.194384 706.019614c0-66.038664-15.756291-126.308631-41.844578-167.464408a154.979915 154.979915 0 0 0-23.591387-29.015684 102.372844 102.372844 0 0 0-8.609995-7.576796 107.452741 107.452741 0 0 0-9.126595-6.285297l-76.112358-46.407874A153.085716 153.085716 0 0 1 474.410741 516.599718a299.800036 299.800036 0 0 1 22.644287 74.045959c1.033199 5.510397 1.894199 11.020794 2.582999 16.703391a385.21119 385.21119 0 0 1 3.357898 52.434872 414.226874 414.226874 0 0 1-71.721261 18.16709c-4.391098 0.6888-8.609995 1.291499-13.345492 1.808099l-3.702298 0.430499c-3.702298 0-7.404596 0.7749-11.192994 1.0332h-2.582999c-4.477198 0-8.609995 0.5166-13.345492 0.6027h-17.219991c-4.477198 0-8.609995 0-13.345493-0.6888h-2.152499c-3.788398 0-7.490696-0.7749-11.192993-1.291499a25.829986 25.829986 0 0 1-3.702298-0.5166c-4.132798-0.6027-8.179496-1.291499-12.226194-2.152499h-0.860999c-4.304998-0.861-8.609995-1.980299-12.656693-3.185698l-4.563298-1.291499-4.735497-1.4637-4.993798-1.808099-4.563297-1.721999-4.907697-1.980299-4.477198-1.980299-4.735497-2.324698-4.304998-2.238599-7.748996-4.391098L344.399812 701.025817c2.066399 1.291499 4.132798 2.496899 6.285296 3.616198l1.3776 0.7749 4.391097 2.238598 4.735498 2.238599 4.477197 1.980299c1.635899 0.7749 3.185698 1.463699 4.821598 2.066399l4.649397 1.721999 4.993797 1.808099 4.649398 1.463699 3.099598 0.9471h1.463699c4.218898 1.205399 8.609995 2.238599 12.742793 3.185698h0.7749c4.046698 0.861 8.609995 1.549799 12.312293 2.152499l3.616198 0.5166c3.702298 0.5166 7.490696 0.947099 11.279094 1.291499h2.152499c4.391098 0 8.609995 0.6027 13.259393 0.688799h17.21999c4.477198 0 8.609995 0 13.431593-0.688799z" fill="#3F59F5" p-id="1011"></path><path d="M81.622755 274.57275l45.288576 27.551985 3.874498 2.238599 1.894199 0.947099c1.721999 0.947099 3.530098 1.721999 5.252097 2.582999l3.530098 1.463699c1.808099 0.6888 3.616198 1.377599 5.424297 1.894199l2.410798 0.860999h0.861a75.509659 75.509659 0 0 0 9.729295 2.152499h1.377599a69.654862 69.654862 0 0 0 8.609995 0.7749H183.3929c3.357898 0 6.801896-0.6888 10.245894-1.205399 25.829986-4.046698 54.24297-15.497992 87.735852-27.810285a615.786864 615.786864 0 0 1 119.506735-32.890182c7.748996-1.205399 15.756291-2.324699 23.935787-3.185699 3.616198 0 7.146296-0.6888 10.676394-0.860999h25.055086l5.682597 0.4305 4.218898 0.430499 5.338197 0.6027 4.218898 0.6027 5.165997 0.860999 4.132798 0.7749 4.993797 1.119299 4.046698 0.9471 4.907697 1.291499 3.357898 1.0332c3.702298 1.033199 7.404596 2.238599 11.020794 3.530098q5.338197 1.980299 10.331995 4.132797l2.669098 1.0332 10.159795 4.735497h0.516599c3.185698 1.549799 6.371397 3.185698 9.470995 4.907697l2.410799 1.3776c3.185698 1.721999 6.199197 3.443998 9.298795 5.338197l-76.198459-46.407875-9.212695-5.338197-1.205399-0.6888-1.205399-0.688799c-3.185698-1.721999-6.285297-3.357898-9.470995-4.907697h-0.5166c-3.357898-1.635899-6.801896-3.185698-10.245894-4.649398l-2.582999-1.119299c-3.357898-1.463699-6.887996-2.841298-10.418094-4.046698-3.530098-1.291499-7.232396-2.410799-11.020794-3.530098l-1.291499-0.4305-2.066399-0.6027-5.165997-1.205399-4.046698-0.947099-5.079897-1.0332-4.132798-0.860999-5.165997-0.861-4.218898-0.6027-5.338197-0.602699-4.304998-0.4305-5.596497-0.4305H359.295104c-3.530098 0-7.060196 0.5166-10.676394 0.861-8.609995 0.861-16.186791 1.980299-23.935787 3.185698a612.342865 612.342865 0 0 0-119.506735 32.890182c-33.578982 12.312293-61.905866 23.763587-87.821952 27.810285-3.443998 0.6027-6.801896 0.947099-10.245895 1.205399h-13.431592c-2.927398 0-5.768697-0.4305-8.609995-0.860999h-1.3776L80.159056 266.909854a144.992321 144.992321 0 0 0-4.046698-16.272891L0 204.573488c37.28128 120.539934-41.069678 420.77047 148.522419 607.090769a212.322484 212.322484 0 0 0 38.658879 29.876683l76.112358 46.407875a215.249882 215.249882 0 0 1-38.658879-29.876684C46.407875 682.944827 104.955843 407.338877 81.622755 274.57275z" fill="#3F59F5" p-id="1012"></path><path d="M1264.033409 143.700821c43.049976-6.801896 79.728556-30.048884 111.929939-97.292946-30.134984 149.900018 31.943083 423.956168-135.349126 640.66975-116.234937 150.674918-282.321746 183.5651-367.732899 225.495776a43.049976 43.049976 0 0 0-10.159794 7.146297c-20.147389 19.544689-102.545044 97.465147-136.210126 102.717243-63.541765 10.073694-80.675656-30.823783-126.739131-57.428668-43.738776-25.227286-270.009452-3.443998-375.051395-106.936142C35.042681 671.579633 113.393638 371.865697 76.112358 250.981363c40.897478 57.342569 76.198458 69.568762 117.440336 63.025165 25.829986-4.046698 54.24297-15.497992 87.735852-27.810284a615.786864 615.786864 0 0 1 119.506735-32.890182c7.748996-1.205399 15.756291-2.324699 23.935787-3.185699 161.437412-17.219991 228.250975 147.489219 302.555235 137.759925 77.489958-12.226193 154.118916-194.844194 291.276141-232.469873a385.899989 385.899989 0 0 1 39.605978-8.609995 514.877719 514.877719 0 0 1 113.221438-3.185698c34.009481 1.980299 64.747165 4.477198 92.643549 0.086099z m-316.331227 511.433721c119.851135-18.85589 256.75006-99.531546 252.014563-318.569826-79.298057 48.474274-170.822307 26.949285-235.999971 83.000355-52.090472 44.858075-87.563652 141.720523-87.735853 239.960569a378.839793 378.839793 0 0 0 71.721261-4.391098m-440.315159 68.879962A417.154272 417.154272 0 0 0 579.194384 706.019614c0-98.412246-35.128781-183.995599-87.047053-212.494684-64.919365-35.559281-156.529714 14.809192-235.827771-8.609995C250.895263 706.019614 387.449788 743.300894 507.387023 724.445004" fill="#3FA9F5" p-id="1013"></path></svg>