<?xml version="1.0" standalone="no"?><!DOCTYPE svg PUBLIC "-//W3C//DTD SVG 1.1//EN" "http://www.w3.org/Graphics/SVG/1.1/DTD/svg11.dtd"><svg t="1719907011254" class="icon" viewBox="0 0 1024 1024" version="1.1" xmlns="http://www.w3.org/2000/svg" p-id="1046" xmlns:xlink="http://www.w3.org/1999/xlink" width="200" height="200"><path d="M400.116428 847.199118m-64.127012 0a64.127012 64.127012 0 1 0 128.254024 0 64.127012 64.127012 0 1 0-128.254024 0Z" fill="#1677ff" p-id="1047"></path><path d="M543.724807 702.687541m-64.127012 0a64.127012 64.127012 0 1 0 128.254024 0 64.127012 64.127012 0 1 0-128.254024 0Z" fill="#1677ff" p-id="1048"></path><path d="M736.105843 830.941566m-64.127012 0a64.127012 64.127012 0 1 0 128.254025 0 64.127012 64.127012 0 1 0-128.254025 0Z" fill="#1677ff" p-id="1049"></path><path d="M879.714223 591.594267m-79.481367 0a79.481367 79.481367 0 1 0 158.962734 0 79.481367 79.481367 0 1 0-158.962734 0Z" fill="#1677ff" p-id="1050"></path><path d="M746.041014 862.553473l153.54355-266.443219-28.902315-14.451158-136.3828 233.024917-184.25226-132.770011-163.478722 163.478721 26.192724 17.16075 137.285998-138.189195z" fill="#1677ff" p-id="1051"></path><path d="M593.400662 959.19559H128.254024V64.127012H659.334068v139.092393h142.705182c0.903197 37.934289 0.903197 120.125248 0 246.572877 17.16075-21.676736 37.934289-31.611907 64.127012-31.611907V203.219405c0-18.063947-7.225579-35.224697-20.773539-46.966263L702.687541 17.16075C690.945976 6.322381 675.591621 0 659.334068 0H128.254024c-35.224697 0-64.127012 28.902315-64.127012 64.127012v895.068578c0 35.224697 28.902315 64.127012 64.127012 64.127012 12.644763 0.903197 189.671444 0.903197 530.176847 0-28.902315-9.031974-51.482249-29.805513-65.030209-64.127012z" fill="#1677ff" p-id="1052"></path><path d="M224.896141 255.604851h255.604851c18.063947 0 31.611907-14.451158 31.611908-31.611907s-14.451158-31.611907-31.611908-31.611908H224.896141c-18.063947 0-31.611907 14.451158-31.611907 31.611908s13.54796 31.611907 31.611907 31.611907zM224.896141 383.858875h383.858876c18.063947 0 31.611907-14.451158 31.611907-31.611907s-14.451158-31.611907-31.611907-31.611907H224.896141c-18.063947 0-31.611907 14.451158-31.611907 31.611907s13.54796 31.611907 31.611907 31.611907zM224.896141 511.209702h383.858876c18.063947 0 31.611907-14.451158 31.611907-31.611907s-14.451158-31.611907-31.611907-31.611907H224.896141c-18.063947 0-31.611907 14.451158-31.611907 31.611907s13.54796 31.611907 31.611907 31.611907z" fill="#1677ff" p-id="1053"></path></svg>