<?xml version="1.0" standalone="no"?><!DOCTYPE svg PUBLIC "-//W3C//DTD SVG 1.1//EN" "http://www.w3.org/Graphics/SVG/1.1/DTD/svg11.dtd"><svg t="1720663614081" class="icon" viewBox="0 0 1387 1024" version="1.1" xmlns="http://www.w3.org/2000/svg" p-id="1079" xmlns:xlink="http://www.w3.org/1999/xlink" width="270.8984375" height="200"><path d="M380.838391 39.673677h557.165843c10.333945 1.08398 20.740155 2.240226 30.640508 5.347636 27.460833 8.23825 51.886521 26.304587 67.712633 50.224417 14.019478 20.812421 21.390543 45.888497 20.740155 71.036839v592.79266c0.289061 16.765561-2.962879 33.675653-9.394495 49.212703-10.912068 26.160056-31.001835 48.417784-55.933381 61.714609-13.802682 7.371066-28.978405 12.140579-44.515455 13.874947-9.32223 1.156246-18.716725 0.867184-27.96669 0.867184H394.496542c-7.804658 0.072265-15.392519 4.408186-19.72844 10.767537-5.419901 7.660127-5.781228 18.499929-0.867185 26.521383 4.408186 7.587862 12.935498 12.501905 21.751871 12.212844 55.861115 0.216796 111.649965 0 167.511079-0.072265 152.407622 0.289061 304.959774 0.072265 457.439662 0.216796 6.937474-0.072265 14.019478 0.289061 20.81242-0.650388 18.788991-2.384757 36.421736-12.285109 48.273254-26.88271 9.755822-11.851517 15.609315-26.810445 16.548765-42.202964 0.216796-6.937474 0-13.874947 0.072265-20.812421V159.27283c-0.216796-7.443331 2.673818-15.175723 8.455046-20.162033 7.804658-7.082004 20.162032-8.310515 29.267466-2.746083 7.009739 4.19139 11.996048 12.068313 12.212844 20.378829v701.913338c0.650388 31.0741-11.34566 62.075935-32.230346 84.911785-19.367114 21.462809-46.46662 35.699083-75.228228 39.529146-3.830064 0.505857-7.804658 0.650388-11.634721 1.300777H387.197742c-12.501905-0.289061-25.003811-1.806634-36.927594-5.419902-26.810445-8.021454-50.65801-25.654199-66.411856-48.706845-10.333945-15.031193-17.271418-32.447142-20.162032-50.513479-0.93945-5.203105-0.93945-10.550741-1.806634-15.826112V160.573606c0.433592-2.673818 0.505857-5.419901 0.722653-8.093719 2.240226-25.003811 12.357375-49.140438 28.617079-68.21849 18.716725-22.329993 45.52717-37.794778 74.361044-42.492025 5.058574-1.156246 10.189414-1.300776 15.247989-2.095695m45.238109 223.805787c-12.718701 0.505857-23.630769 12.285109-23.052647 25.003811-0.216796 13.152294 11.634721 24.642484 24.642484 24.425688h446.961186c9.394495 0.144531 18.572195-5.564432 22.546789-14.091744 3.179675-6.431616 3.179675-14.308539 0.216796-20.81242-3.10741-6.865208-9.394495-12.068313-16.62103-13.874947-4.914044-1.300776-9.900353-0.650388-14.814397-0.722654-146.554128 0-293.252788-0.072265-439.879181 0.072266m-4.986309 181.747353c-11.34566 2.962879-19.439379 14.814397-17.921807 26.593649 1.08398 11.779252 11.779252 21.824135 23.630769 21.896401h449.635004c11.634721-0.433592 21.896401-10.117149 23.052646-21.679605 2.02343-13.585886-9.394495-27.099506-23.052646-27.533098H431.135074c-3.324206-0.144531-6.720677-0.361327-10.044883 0.722653m0.867184 179.94072c-8.671842 2.02343-15.826112 8.960903-18.066338 17.632745-2.312491 8.310515 0.216796 17.705011 6.287086 23.847566 4.624982 4.552717 10.984333 7.371066 17.488214 7.371065h438.361609c5.203105-0.216796 10.550741 0.505857 15.681581-0.939449 8.671842-2.457022 15.609315-9.900353 17.415949-18.716726 1.806634-8.093719-0.93945-17.054622-6.937473-22.763585-4.624982-4.552717-10.984333-7.082004-17.488215-7.154269H432.797177c-3.613267-0.144531-7.226535-0.216796-10.839802 0.722653z m0 0" fill="#1677ff" p-id="1080"></path></svg>