<?xml version="1.0" standalone="no"?><!DOCTYPE svg PUBLIC "-//W3C//DTD SVG 1.1//EN" "http://www.w3.org/Graphics/SVG/1.1/DTD/svg11.dtd"><svg t="1719227227295" class="icon" viewBox="0 0 1024 1024" version="1.1" xmlns="http://www.w3.org/2000/svg" p-id="978" xmlns:xlink="http://www.w3.org/1999/xlink" width="200" height="200"><path d="M465.76071111 26.54814777C708.36527445 26.54814777 904.97327445 223.20469333 904.97327445 465.76071111c0 102.43034112-35.04962333 196.70508999-93.86211555 271.41612999l171.4373211 172.74804224a50.99671666 50.99671666 0 0 1-0.80099555 72.81777778 52.79288889 52.79288889 0 0 1-68.57007446 3.88361443l-5.29142442-4.66033777-170.05378447-171.36450333a437.34357333 437.34357333 0 0 1-272.07148999 94.37184C223.20469333 904.97327445 26.54814777 708.36527445 26.54814777 465.76071111 26.54814777 223.20469333 223.20469333 26.54814777 465.76071111 26.54814777z m0 92.47857778c-191.51075555 0-346.73398557 155.22323001-346.73398556 346.73398556 0 191.51075555 155.22323001 346.75825778 346.73398556 346.75825778 191.51075555 0 346.75825778-155.24750222 346.75825778-346.75825778S657.27146667 119.02672555 465.76071111 119.02672555z" fill="#1677ff" p-id="979"></path><path d="M545.98163001 310.4161189a48.54518557 48.54518557 0 0 1 70.99733333-12.0634789l2.98552889 2.54862222 105.17314332 97.64864a48.54518557 48.54518557 0 0 1-62.86601443 73.86149888l-3.15543779-2.71852999-62.52619776-57.98722332-89.88141114 141.21794332a48.54518557 48.54518557 0 0 1-75.4877622 8.03422777l-2.62144-2.86416555-61.19120668-72.84204999-68.83707222 112.72192a48.54518557 48.54518557 0 0 1-63.25437667 18.08308111l-3.47097999-1.94180779a48.54518557 48.54518557 0 0 1-18.08308224-63.25437554l1.94180779-3.47098112 104.00805888-170.32078222a48.54518557 48.54518557 0 0 1 75.97321557-8.85949668l2.62144 2.91271111 62.04074667 73.81295446 85.63370667-134.51870777z" fill="#1677ff" p-id="980"></path></svg>