<?xml version="1.0" standalone="no"?><!DOCTYPE svg PUBLIC "-//W3C//DTD SVG 1.1//EN" "http://www.w3.org/Graphics/SVG/1.1/DTD/svg11.dtd"><svg t="1715244833410" class="icon" viewBox="0 0 1024 1024" version="1.1" xmlns="http://www.w3.org/2000/svg" p-id="1069" xmlns:xlink="http://www.w3.org/1999/xlink" width="200" height="200"><path d="M682.688 0v221.12c0 32.064 25.856 58.112 57.728 58.176H960V965.76a58.048 58.048 0 0 1-57.792 58.176H121.792A58.048 58.048 0 0 1 64 965.76V58.24c0-32.192 25.856-58.24 57.792-58.24h560.896zM548.16 460.8A179.456 179.456 0 0 0 368.448 640c0 98.944 80.448 179.2 179.712 179.2 21.12-0.128 48.832-9.664 68.736-16.896l109.568 151.872 44.8-27.52-104.704-150.4c59.904-47.872 73.6-140.544 45.76-206.336A179.328 179.328 0 0 0 548.16 460.8zM483.968 529.152a128.768 128.768 0 0 1 128.384 0 127.936 127.936 0 0 1 0 221.696 128.768 128.768 0 0 1-128.384 0 127.936 127.936 0 0 1 0-221.696zM317.056 384H240v307.2h77.056V384z m462.208 51.2h-76.992v69.568A204.8 204.8 0 0 1 753.6 640c0 17.28-2.368 34.496-6.848 51.2h32.512v-256z m-308.16-128H394.112v197.568c21.12-23.936 47.424-42.624 76.992-54.656V307.2z m154.112 51.2H548.16v76.8c26.432 0.064 52.544 5.12 77.056 14.912V358.4z" fill="#3D75EF" p-id="1070"></path><path d="M728.896 221.12c0 6.4 5.12 11.584 11.52 11.584h205.76a59.712 59.712 0 0 0-3.072-3.392L732.288 17.024a59.584 59.584 0 0 0-3.392-3.136v207.232z" fill="#3D75EF" p-id="1071"></path></svg>