<?xml version="1.0" standalone="no"?><!DOCTYPE svg PUBLIC "-//W3C//DTD SVG 1.1//EN" "http://www.w3.org/Graphics/SVG/1.1/DTD/svg11.dtd"><svg t="1720771416898" class="icon" viewBox="0 0 1024 1024" version="1.1" xmlns="http://www.w3.org/2000/svg" p-id="1263" xmlns:xlink="http://www.w3.org/1999/xlink" width="200" height="200"><path d="M895.68 902.016a12.288 12.288 0 0 1-8.32-11.712v-18.944a32.576 32.576 0 0 0-32.512-32.512H211.328a32.576 32.576 0 0 0-32.512 32.512v14.08a12.16 12.16 0 0 1-10.368 12.032 117.76 117.76 0 0 0-99.52 116.224h907.776c0-50.816-32.768-95.936-81.024-111.68z m-697.6-259.456a23.104 23.104 0 0 0 37.312-8.192 22.848 22.848 0 0 0-5.504-25.216L92.992 479.36a23.04 23.04 0 0 0-39.04 17.28 23.232 23.232 0 0 0 7.296 16.064l136.896 129.856z m25.472 78.208a23.232 23.232 0 0 0-26.496-19.072L27.264 729.6a23.296 23.296 0 0 0-17.856 14.72 23.104 23.104 0 0 0 25.408 30.784l169.792-28.032a22.976 22.976 0 0 0 18.944-26.368z m771.84 0.128L651.456 400.64l123.712-123.52 0.128 0.064a29.12 29.12 0 0 0 41.152 0l1.28-1.088a29.312 29.312 0 0 0 0-41.28L597.12 14.336a29.312 29.312 0 0 0-41.28 0l-1.28 1.088a29.056 29.056 0 0 0 0 41.28h0.128L246.784 364.8l-0.128-0.128a29.312 29.312 0 0 0-41.28 0l-1.152 1.088a29.312 29.312 0 0 0 0 41.344l220.416 220.48a29.312 29.312 0 0 0 41.28 0l1.088-1.28a29.12 29.12 0 0 0 0-41.152l-0.128-0.128 123.584-123.712 320.32 343.936a59.712 59.712 0 1 0 84.608-84.352zM333.056 390.4a12.224 12.224 0 0 1-17.088 0l-0.512-0.512a12.224 12.224 0 0 1 0-17.088l247.488-247.488a12.224 12.224 0 0 1 17.152 0l0.32 0.448a12.224 12.224 0 0 1 0 17.152L333.056 390.4z" fill="#356AF9" p-id="1264"></path></svg>